<svg id="圖層_1" data-name="圖層 1" xmlns="http://www.w3.org/2000/svg" xmlns:xlink="http://www.w3.org/1999/xlink" viewBox="0 0 674 171"><defs><style>.cls-1{fill:none;}.cls-2{clip-path:url(#clip-path);}.cls-3{fill:#606060;opacity:0.47;}</style><clipPath id="clip-path"><rect class="cls-1" x="-35" y="-44" width="742" height="265"/></clipPath></defs><g class="cls-2"><path class="cls-3" d="M455.71,99.51c8.62-24.76,24.35-50.86,24.35-50.86C466.84,52.46,434,90.28,434,90.28c8.11-56.66,1.77-52.69,1.77-52.69C432.4,49.2,416.16,88.4,404.89,107.8Q430.45,103.79,455.71,99.51Z"/><path class="cls-3" d="M491.4,93.28q18-3.23,35.75-6.6c4.19-27.83,18.08-57.75,11.27-50.81l-.74.76C527,48,509.22,75.32,509.22,75.32c.53-35.75-12.61-44.54-12.61-44.54C502.46,43.06,496.64,72.63,491.4,93.28Z"/><path class="cls-3" d="M561.29,80.06q19.26-3.82,38.31-7.83c1.24-25.87,3.79-51.05,3.79-51.05-3,3.53-21.12,48.9-21.12,48.9,1-19-12.35-42.48-12.35-42.48C571.27,38,565.32,64.11,561.29,80.06Z"/><path class="cls-3" d="M247.57,129.26q46.83-5.47,92.78-11.91C338.21,86.93,359,24.3,351,31.75c-9.18,8.53-33.62,71.49-33.62,71.49-7.78-33.62-42.26-61.69-42.26-61.69,16.58,17.74,23.64,60.81,26.08,80.63-4.21-18.82-18.93-38.53-18.93-38.53-1.29,3.31-.66,34.71-.66,34.71-15.9-56.71-30.51-83.15-30.51-83.15C248.5,55.42,247.73,113.5,247.57,129.26Z"/><path class="cls-3" d="M347.36,116.37Q370.79,113,394,109.48c1.86-24.68,18.89-89.92,18.89-89.92-17.22,12.72-40.06,88.07-40.06,88.07-2.58-33.25-16.47-47.93-16.47-47.93C359.66,76.4,352.45,101.61,347.36,116.37Z"/><path class="cls-3" d="M460.57,98.68l.34-.05-.15-.27Z"/><path class="cls-3" d="M224.85,131.86q10.82-1.2,21.59-2.47c-7.48-24.54-22.66-34-22.66-34C226.69,103.54,226.05,119.2,224.85,131.86Z"/><path class="cls-3" d="M617.42,68.44c-1.74-13.1.81-27.31-4.44-12.82a77.83,77.83,0,0,0-3.21,14.45Z"/><path class="cls-3" d="M213.49,121.91c-1.38,2.21-2.8,7.14-3.91,11.63l8.55-.94C215.26,122.72,213.49,121.91,213.49,121.91Z"/><path class="cls-3" d="M472.26,81.14c-2.45,3.23-4.87,10.68-6.55,16.65q8.27-1.42,16.5-2.88C478,77.86,472.26,81.14,472.26,81.14Z"/><path class="cls-3" d="M625.11,66.77q14-3.06,28-6.2c-5.39-23.65-27-54.12-32.62-61.69C628.75,11.75,627,46.3,625.11,66.77Z"/><path class="cls-3" d="M543.7,83.52l12.06-2.36c-3.88-17.7-9.48-24.27-9.48-24.27C547,62.43,545.68,72.66,543.7,83.52Z"/><path class="cls-3" d="M40.89,148.44c-7.5-13.55-34-33.41-34-33.41A153.39,153.39,0,0,1,28.17,149.3Z"/><path class="cls-3" d="M68.26,146.46c-8.48-30.26-16.32-54-16.32-54-7.73,6.22-9.1,43.44-9.34,55.9Q55.46,147.42,68.26,146.46Z"/><path class="cls-3" d="M116.26,142.59q30-2.58,59.62-5.55c-15-73.51-1.3-89.13,2.62-92-22,13.9-41,85.63-41,85.63-12-26.77-57.26-45.06-57.26-45.06C107.18,97.68,114.41,125.63,116.26,142.59Z"/><path class="cls-3" d="M74.07,146l7.91-.61a205.52,205.52,0,0,0-10.73-23C73.48,127.13,74.07,137,74.07,146Z"/><path class="cls-3" d="M205.49,134C206.75,116.54,220,79.11,220,79.11c-12,10.84-21.31,35.3-27.48,56.24Z"/><path class="cls-3" d="M178.5,45.05c.33-.21.65-.41,1-.59A5.33,5.33,0,0,0,178.5,45.05Z"/><path class="cls-3" d="M79.19,102.88a17.3,17.3,0,0,0-4-3S76.73,100.94,79.19,102.88Z"/><path class="cls-3" d="M93,144.53q9.58-.78,19.15-1.59c-9-19.67-25.4-34.13-32.94-40.06C87.2,110.76,91.13,127.55,93,144.53Z"/></g></svg>